<svg width="314" height="292" viewBox="0 0 314 292" fill="none" xmlns="http://www.w3.org/2000/svg">
	<g filter="url(#filter0_d_289_19870)">
	<path d="M99.8796 251.866L273.108 178.985L257.546 116.584L225.433 83.0699L145.232 46.3943L97.3511 44.8427L40.864 74.1412L99.8796 251.866Z" fill="#D9ECFF"/>
	</g>
	<mask id="mask0_289_19870" style="mask-type:alpha" maskUnits="userSpaceOnUse" x="99" y="177" width="175" height="76">
	<path d="M99.5137 252.009L208.8 177.521L273.474 178.841L99.5137 252.009Z" fill="black"/>
	</mask>
	<g mask="url(#mask0_289_19870)">
	<path d="M99.5137 252.009L208.8 177.521L273.474 178.841L99.5137 252.009Z" fill="url(#paint0_linear_289_19870)"/>
	<path d="M114.133 238.677L273.474 178.842L97.4612 253.235L114.133 238.677Z" fill="white" fill-opacity="0.4"/>
	</g>
	<mask id="mask1_289_19870" style="mask-type:alpha" maskUnits="userSpaceOnUse" x="209" y="116" width="64" height="63">
	<path d="M272.964 178.618L257.689 116.951L211.688 118.046L209.848 173.729L272.964 178.618Z" fill="black"/>
	</mask>
	<g mask="url(#mask1_289_19870)">
	<path d="M272.964 178.618L257.689 116.951L211.688 118.046L209.848 173.729L272.964 178.618Z" fill="url(#paint1_linear_289_19870)"/>
	<path d="M274.597 179.303C260.636 177.992 233.765 173.626 225.967 165.305C219.165 158.048 215.729 133.345 214.413 116.308L210.495 116.399L208.599 174.852L274.775 180.023L274.597 179.303Z" fill="white" fill-opacity="0.4"/>
	</g>
	<mask id="mask2_289_19870" style="mask-type:alpha" maskUnits="userSpaceOnUse" x="97" y="44" width="161" height="73">
	<path d="M130.052 77.7037L97.3511 44.8427L145.598 46.2511L225.433 83.0699L257.546 116.584L210.921 112.85L130.052 77.7037Z" fill="black"/>
	</mask>
	<g mask="url(#mask2_289_19870)">
	<path d="M130.052 77.7037L97.3511 44.8427L145.598 46.2511L225.433 83.0699L257.546 116.584L210.921 112.85L130.052 77.7037Z" fill="url(#paint2_linear_289_19870)"/>
	<path d="M207.025 73.4835C212.484 79.0059 218.565 86.2484 224.837 95.5642C230.123 103.417 233.963 110.364 236.71 116.353L212.745 114.412L182.944 101.42C188.739 98.9376 190.984 92.2363 179.189 77.0725C169.396 64.4828 157.378 53.719 146.658 45.56L207.025 73.4835Z" fill="white" fill-opacity="0.4"/>
	</g>
	<mask id="mask3_289_19870" style="mask-type:alpha" maskUnits="userSpaceOnUse" x="40" y="44" width="90" height="78">
	<path d="M129.908 77.3371L97.351 44.8427L40.8639 74.1412L89.3808 121.528L129.908 77.3371Z" fill="black"/>
	</mask>
	<g mask="url(#mask3_289_19870)">
	<path d="M129.908 77.3371L97.351 44.8427L40.8639 74.1412L89.3808 121.528L129.908 77.3371Z" fill="url(#paint3_linear_289_19870)"/>
	<path d="M123.947 65.8012C119.617 78.0425 111.122 94.4431 97.8178 102.287C82.7701 111.159 55.7804 88.2824 39.4424 70.7713L35.3173 72.9107L89.4223 125.74L134.631 76.4608L123.947 65.8012Z" fill="white" fill-opacity="0.4"/>
	</g>
	<mask id="mask4_289_19870" style="mask-type:alpha" maskUnits="userSpaceOnUse" x="41" y="73" width="59" height="179">
	<path d="M89.0939 120.795L99.7362 251.499L41.23 73.9979L89.0939 120.795Z" fill="black"/>
	</mask>
	<g mask="url(#mask4_289_19870)">
	<path d="M89.0939 120.795L99.7362 251.499L41.23 73.9979L89.0939 120.795Z" fill="url(#paint4_linear_289_19870)"/>
	<path d="M105.528 247.964L36.9248 62.9995L99.4413 262.607L105.528 247.964Z" fill="white" fill-opacity="0.4"/>
	</g>
	<path d="M99.7361 251.499L204.358 175.878L93.744 124.048L99.7361 251.499Z" fill="url(#paint5_linear_289_19870)"/>
	<mask id="mask5_289_19870" style="mask-type:alpha" maskUnits="userSpaceOnUse" x="95" y="78" width="114" height="94">
	<path d="M205.629 171.575L208.122 116.482L130.705 78.2936L95.6675 120.336L205.629 171.575Z" fill="black"/>
	</mask>
	<g mask="url(#mask5_289_19870)">
	<path d="M205.629 171.575L208.122 116.482L130.705 78.2936L95.6675 120.336L205.629 171.575Z" fill="url(#paint6_linear_289_19870)"/>
	<path d="M213.747 114.677L209.949 173.266L206.736 171.869C204.637 156.352 193.256 126.954 160.27 110.691C126.566 94.0743 101.811 110.33 92.2033 122.056L89.5599 120.907L129.028 75.5676L213.747 114.677Z" fill="white" fill-opacity="0.4"/>
	</g>
	<g filter="url(#filter1_dd_289_19870)">
	<path fill-rule="evenodd" clip-rule="evenodd" d="M90.0884 122.655L80.6769 115.256L88.0117 124.766L66.7759 126.48L89.5687 128.319L74.9684 144.493L90.7069 130.012L92.3861 174.255L93.954 132.944L107.028 166.567L94.4457 131.285L104.215 139.02L95.8711 128.279L117.539 126.48L95.933 124.685L109.349 109.783L94.0985 123.777L92.3861 77.3447L90.7611 121.406L77.6424 87.7086L90.0884 122.655Z" fill="white"/>
	</g>
	<defs>
	<filter id="filter0_d_289_19870" x="0.864014" y="4.84277" width="312.244" height="287.023" filterUnits="userSpaceOnUse" color-interpolation-filters="sRGB">
	<feFlood flood-opacity="0" result="BackgroundImageFix"/>
	<feColorMatrix in="SourceAlpha" type="matrix" values="0 0 0 0 0 0 0 0 0 0 0 0 0 0 0 0 0 0 127 0" result="hardAlpha"/>
	<feOffset/>
	<feGaussianBlur stdDeviation="20"/>
	<feComposite in2="hardAlpha" operator="out"/>
	<feColorMatrix type="matrix" values="0 0 0 0 0.388235 0 0 0 0 0.294118 0 0 0 0 0.894118 0 0 0 0.6 0"/>
	<feBlend mode="normal" in2="BackgroundImageFix" result="effect1_dropShadow_289_19870"/>
	<feBlend mode="normal" in="SourceGraphic" in2="effect1_dropShadow_289_19870" result="shape"/>
	</filter>
	<filter id="filter1_dd_289_19870" x="50.7759" y="61.3447" width="82.7632" height="128.91" filterUnits="userSpaceOnUse" color-interpolation-filters="sRGB">
	<feFlood flood-opacity="0" result="BackgroundImageFix"/>
	<feColorMatrix in="SourceAlpha" type="matrix" values="0 0 0 0 0 0 0 0 0 0 0 0 0 0 0 0 0 0 127 0" result="hardAlpha"/>
	<feOffset/>
	<feGaussianBlur stdDeviation="8"/>
	<feComposite in2="hardAlpha" operator="out"/>
	<feColorMatrix type="matrix" values="0 0 0 0 1 0 0 0 0 1 0 0 0 0 1 0 0 0 1 0"/>
	<feBlend mode="normal" in2="BackgroundImageFix" result="effect1_dropShadow_289_19870"/>
	<feColorMatrix in="SourceAlpha" type="matrix" values="0 0 0 0 0 0 0 0 0 0 0 0 0 0 0 0 0 0 127 0" result="hardAlpha"/>
	<feOffset/>
	<feGaussianBlur stdDeviation="2"/>
	<feComposite in2="hardAlpha" operator="out"/>
	<feColorMatrix type="matrix" values="0 0 0 0 1 0 0 0 0 1 0 0 0 0 1 0 0 0 1 0"/>
	<feBlend mode="normal" in2="effect1_dropShadow_289_19870" result="effect2_dropShadow_289_19870"/>
	<feBlend mode="normal" in="SourceGraphic" in2="effect2_dropShadow_289_19870" result="shape"/>
	</filter>
	<linearGradient id="paint0_linear_289_19870" x1="214.122" y1="188.349" x2="220.941" y2="212.517" gradientUnits="userSpaceOnUse">
	<stop stop-color="#3C52D7"/>
	<stop offset="1" stop-color="#923CFF"/>
	</linearGradient>
	<linearGradient id="paint1_linear_289_19870" x1="215.569" y1="159.229" x2="270.612" y2="159.604" gradientUnits="userSpaceOnUse">
	<stop stop-color="#57CEFF"/>
	<stop offset="1" stop-color="#4232FA"/>
	</linearGradient>
	<linearGradient id="paint2_linear_289_19870" x1="228.777" y1="85.1433" x2="109.167" y2="32.4918" gradientUnits="userSpaceOnUse">
	<stop stop-color="#57CEFF"/>
	<stop offset="1" stop-color="#4232FA"/>
	</linearGradient>
	<linearGradient id="paint3_linear_289_19870" x1="63.4166" y1="95.2764" x2="127.084" y2="104.823" gradientUnits="userSpaceOnUse">
	<stop stop-color="#3E71FD"/>
	<stop offset="1" stop-color="#5CA3FF"/>
	</linearGradient>
	<linearGradient id="paint4_linear_289_19870" x1="83.608" y1="139.007" x2="45.7722" y2="169.873" gradientUnits="userSpaceOnUse">
	<stop stop-color="#3C52D7"/>
	<stop offset="1" stop-color="#923CFF"/>
	</linearGradient>
	<linearGradient id="paint5_linear_289_19870" x1="153.773" y1="153.399" x2="99.3517" y2="251.92" gradientUnits="userSpaceOnUse">
	<stop stop-color="#3C52D7"/>
	<stop offset="1" stop-color="#B23CFF"/>
	</linearGradient>
	<linearGradient id="paint6_linear_289_19870" x1="217.538" y1="106.032" x2="94.8087" y2="110.483" gradientUnits="userSpaceOnUse">
	<stop stop-color="#57CEFF"/>
	<stop offset="1" stop-color="#4232FA"/>
	</linearGradient>
	</defs>
	</svg>
	